
<svg version="1.0" xmlns="http://www.w3.org/2000/svg"
 width="400.000000pt" height="400.000000pt" viewBox="0 0 400.000000 400.000000"
 preserveAspectRatio="xMidYMid meet">

<g transform="translate(0.000000,400.000000) scale(0.100000,-0.100000)"
fill="#000000" stroke="none">
<path d="M0 3985 c0 -13 35 -15 253 -16 191 0 246 -3 227 -11 -178 -78 -274
-146 -361 -255 -30 -37 -60 -79 -67 -92 -57 -101 -52 64 -52 -1661 l0 -1569
32 -58 c60 -109 132 -193 238 -276 l35 -27 -152 0 c-95 0 -153 -4 -153 -10 0
-7 673 -10 2000 -10 1327 0 2000 3 2000 10 0 6 -63 10 -167 10 l-168 1 35 27
c134 104 229 228 283 372 16 42 17 157 17 1534 l0 1489 -45 95 c-90 190 -231
320 -450 414 -26 11 8 13 233 16 224 2 262 4 262 17 0 13 -239 15 -2000 15
-1771 0 -2000 -2 -2000 -15z m730 -1295 c5 -350 7 -363 62 -422 45 -47 86 -63
168 -63 81 0 118 14 165 60 66 66 75 125 75 471 l0 285 68 -3 67 -3 0 -460 0
-460 -67 -3 -68 -3 0 30 c0 16 -4 32 -9 35 -5 3 -31 -9 -59 -27 -95 -65 -244
-71 -358 -16 -58 28 -132 104 -162 169 l-26 55 -4 328 c-2 181 -1 335 2 343 4
12 21 14 73 12 l68 -3 5 -325z m854 313 c4 -9 4 -76 1 -147 -7 -151 -2 -169
41 -139 66 44 115 58 209 58 84 0 96 -3 159 -34 75 -38 131 -95 167 -169 20
-40 24 -63 24 -147 0 -84 -4 -107 -22 -145 -83 -168 -292 -253 -454 -186 -31
12 -70 32 -86 44 -34 24 -43 20 -43 -20 0 -28 0 -28 -64 -28 -49 0 -65 4 -70
16 -8 20 -8 878 0 898 9 24 129 23 138 -1z m1162 -258 c72 -35 101 -61 138
-119 40 -64 56 -117 56 -189 l0 -57 -272 -2 c-269 -3 -273 -3 -276 -24 -3 -23
48 -96 88 -125 33 -25 140 -39 197 -27 24 6 64 25 88 44 25 19 48 34 51 34 13
0 84 -56 84 -67 0 -17 -76 -79 -127 -103 -75 -35 -145 -45 -221 -31 -138 26
-248 111 -291 226 -44 115 -14 268 70 360 41 45 124 93 181 105 69 15 176 3
234 -25z m412 -7 c2 -16 5 -28 8 -28 2 0 23 12 45 27 29 19 58 28 100 31 l59
4 0 -61 c0 -33 -1 -61 -2 -62 -2 0 -25 -3 -53 -5 -58 -6 -99 -28 -129 -67 -20
-26 -21 -45 -26 -255 l-5 -227 -67 -3 -68 -3 0 334 c0 183 3 337 7 341 4 4 34
6 68 4 57 -3 60 -4 63 -30z m-2668 -819 c56 -12 111 -53 136 -100 18 -36 18
-122 -1 -159 -8 -15 -27 -38 -42 -50 l-28 -21 25 -20 c14 -10 28 -19 32 -19 3
0 15 -16 27 -36 16 -27 21 -52 21 -105 0 -79 -7 -98 -59 -152 -56 -58 -99 -67
-343 -67 l-208 0 0 370 0 370 195 0 c106 0 217 -5 245 -11z m668 -200 c77 -38
82 -55 82 -279 0 -153 3 -201 15 -224 8 -15 15 -30 15 -32 0 -2 -33 -4 -74 -4
l-74 0 -7 30 c-4 17 -8 30 -11 30 -2 0 -24 -15 -50 -32 -41 -30 -52 -33 -119
-33 -59 0 -79 4 -101 21 -67 50 -89 121 -60 197 27 71 73 96 221 118 111 17
142 53 90 104 -19 20 -34 25 -74 25 -43 0 -53 -4 -75 -31 -14 -17 -26 -35 -26
-40 0 -11 -117 -12 -124 -1 -9 14 13 78 36 107 36 47 91 65 197 65 77 0 103
-4 139 -21z m529 1 c17 -10 37 -28 43 -39 16 -32 30 -25 30 14 l0 35 65 0 65
0 0 -302 c0 -274 -2 -307 -19 -344 -23 -50 -75 -93 -133 -111 -66 -20 -198
-17 -250 6 -42 18 -108 73 -108 91 0 5 -3 15 -6 24 -5 14 5 16 69 16 68 0 79
-3 101 -25 20 -20 35 -25 75 -25 27 0 61 4 76 10 34 13 55 65 55 136 l0 56
-39 -35 c-45 -41 -83 -51 -151 -42 -75 10 -132 52 -166 122 -26 52 -29 68 -29
158 0 136 31 202 115 254 48 29 161 30 207 1z m686 6 c18 -7 46 -28 62 -45
l30 -32 5 -214 c4 -152 9 -218 18 -227 23 -23 12 -29 -59 -27 -69 2 -72 3 -83
31 -12 33 -16 34 -49 8 -64 -50 -144 -63 -217 -34 -55 22 -81 62 -86 132 -9
112 53 168 214 192 108 16 122 23 122 60 0 45 -31 70 -86 70 -57 0 -78 -11
-94 -50 -12 -29 -15 -30 -76 -30 -73 0 -77 6 -45 75 20 43 40 64 86 88 39 21
212 23 258 3z m557 -51 l0 -65 -42 0 c-25 0 -57 -8 -76 -20 -53 -32 -62 -68
-62 -245 l0 -155 -70 0 -70 0 0 270 0 270 65 0 c62 0 65 -1 66 -25 1 -14 3
-29 4 -35 1 -5 3 -15 4 -22 0 -6 14 7 31 30 37 51 55 61 108 62 l42 0 0 -65z
m408 3 l-3 -63 -54 -7 c-42 -5 -61 -13 -85 -37 l-31 -31 -3 -175 -3 -175 -70
0 -69 0 0 270 0 270 65 0 65 0 0 -40 c0 -22 2 -40 5 -40 3 0 25 20 48 45 40
41 48 45 91 45 l47 0 -3 -62z m430 42 c52 -28 65 -40 94 -85 26 -41 48 -122
48 -175 l0 -30 -185 0 c-209 0 -207 0 -186 -71 15 -49 59 -79 116 -79 39 0 82
20 98 47 5 9 30 13 72 13 56 0 65 -2 65 -18 0 -31 -52 -89 -105 -119 -43 -24
-61 -28 -125 -28 -174 1 -256 81 -267 260 -9 140 36 238 132 285 57 27 191 28
243 0z"/>
<path d="M1725 2636 c-92 -43 -135 -112 -135 -213 0 -35 8 -74 19 -99 22 -49
93 -112 135 -119 17 -3 43 -7 59 -9 40 -7 121 17 160 47 19 15 47 50 61 79 65
131 -1 282 -142 324 -64 20 -100 17 -157 -10z"/>
<path d="M2540 2651 c-74 -23 -137 -81 -142 -132 l-3 -24 198 -3 197 -2 0 22
c0 41 -48 98 -103 124 -52 24 -101 29 -147 15z"/>
<path d="M202 1723 l3 -88 119 3 c66 2 127 7 136 12 28 15 43 56 36 95 -10 52
-47 65 -186 65 l-111 0 3 -87z"/>
<path d="M200 1415 l0 -105 120 0 c138 0 171 11 189 61 15 44 14 66 -6 100
-24 40 -59 49 -189 49 l-114 0 0 -105z"/>
<path d="M1040 1434 c-25 -7 -55 -13 -68 -13 -33 -1 -72 -44 -72 -79 0 -47 31
-77 78 -76 79 2 132 59 132 143 0 45 -1 45 -70 25z"/>
<path d="M1557 1609 c-28 -22 -57 -100 -57 -154 0 -46 19 -96 48 -127 22 -24
34 -28 78 -28 45 0 57 4 82 29 68 68 51 245 -27 285 -42 22 -93 20 -124 -5z"/>
<path d="M2295 1441 c-11 -5 -42 -11 -69 -15 -65 -10 -98 -43 -94 -93 7 -79
98 -94 166 -27 28 28 32 38 32 88 0 58 -2 60 -35 47z"/>
<path d="M3594 1626 c-18 -8 -38 -28 -48 -50 -29 -61 -21 -66 104 -66 104 0
110 1 110 20 0 37 -30 81 -65 96 -42 17 -61 17 -101 0z"/>
</g>
</svg>
